<mxfile host="app.diagrams.net" agent="Mozilla/5.0 (Windows NT 10.0; Win64; x64) AppleWebKit/537.36 (KHTML, like Gecko) Chrome/127.0.0.0 Safari/537.36" version="24.7.8">
  <diagram name="Page-1" id="55a83fd1-7818-8e21-69c5-c3457e3827bb">
    <mxGraphModel dx="2534" dy="-70" grid="1" gridSize="10" guides="1" tooltips="1" connect="1" arrows="1" fold="1" page="1" pageScale="1" pageWidth="1100" pageHeight="850" background="none" math="0" shadow="0">
      <root>
        <mxCell id="0" />
        <mxCell id="1" parent="0" />
        <mxCell id="A322ff-ICec4E691yLk0-39" style="rounded=0;orthogonalLoop=1;jettySize=auto;html=1;entryX=0.5;entryY=0;entryDx=0;entryDy=0;endArrow=none;endFill=0;" parent="1" source="A322ff-ICec4E691yLk0-2" target="A322ff-ICec4E691yLk0-5" edge="1">
          <mxGeometry relative="1" as="geometry" />
        </mxCell>
        <mxCell id="A322ff-ICec4E691yLk0-2" value="互联网&lt;div&gt;&lt;br&gt;&lt;/div&gt;" style="image;html=1;image=img/lib/clip_art/networking/Cloud_128x128.png" parent="1" vertex="1">
          <mxGeometry x="480" y="900" width="80" height="80" as="geometry" />
        </mxCell>
        <mxCell id="A322ff-ICec4E691yLk0-40" style="edgeStyle=orthogonalEdgeStyle;rounded=0;orthogonalLoop=1;jettySize=auto;html=1;endArrow=none;endFill=0;" parent="1" source="A322ff-ICec4E691yLk0-5" target="A322ff-ICec4E691yLk0-8" edge="1">
          <mxGeometry relative="1" as="geometry" />
        </mxCell>
        <mxCell id="A322ff-ICec4E691yLk0-5" value="光猫/无线路由器&lt;div&gt;&lt;br&gt;&lt;/div&gt;" style="image;html=1;image=img/lib/clip_art/networking/Wireless_Router_128x128.png" parent="1" vertex="1">
          <mxGeometry x="480" y="1100" width="80" height="80" as="geometry" />
        </mxCell>
        <mxCell id="A322ff-ICec4E691yLk0-7" value="二楼电脑" style="image;html=1;image=img/lib/clip_art/computers/Monitor_Tower_Behind_128x128.png" parent="1" vertex="1">
          <mxGeometry x="160" y="1520" width="80" height="80" as="geometry" />
        </mxCell>
        <mxCell id="sb28jzZigiY6P5OChxor-4" style="edgeStyle=orthogonalEdgeStyle;rounded=0;orthogonalLoop=1;jettySize=auto;html=1;endArrow=none;endFill=0;" edge="1" parent="1" source="A322ff-ICec4E691yLk0-8" target="A322ff-ICec4E691yLk0-42">
          <mxGeometry relative="1" as="geometry">
            <Array as="points">
              <mxPoint x="520" y="1500" />
              <mxPoint x="390" y="1500" />
            </Array>
          </mxGeometry>
        </mxCell>
        <mxCell id="sb28jzZigiY6P5OChxor-6" style="edgeStyle=orthogonalEdgeStyle;rounded=0;orthogonalLoop=1;jettySize=auto;html=1;endArrow=none;endFill=0;" edge="1" parent="1" source="A322ff-ICec4E691yLk0-8" target="A322ff-ICec4E691yLk0-48">
          <mxGeometry relative="1" as="geometry" />
        </mxCell>
        <mxCell id="sb28jzZigiY6P5OChxor-7" style="edgeStyle=orthogonalEdgeStyle;rounded=0;orthogonalLoop=1;jettySize=auto;html=1;endArrow=none;endFill=0;" edge="1" parent="1" source="A322ff-ICec4E691yLk0-8" target="A322ff-ICec4E691yLk0-49">
          <mxGeometry relative="1" as="geometry">
            <Array as="points">
              <mxPoint x="520" y="1500" />
              <mxPoint x="760" y="1500" />
            </Array>
          </mxGeometry>
        </mxCell>
        <mxCell id="sb28jzZigiY6P5OChxor-8" style="edgeStyle=orthogonalEdgeStyle;rounded=0;orthogonalLoop=1;jettySize=auto;html=1;endArrow=none;endFill=0;" edge="1" parent="1" source="A322ff-ICec4E691yLk0-8" target="A322ff-ICec4E691yLk0-47">
          <mxGeometry relative="1" as="geometry">
            <Array as="points">
              <mxPoint x="520" y="1500" />
              <mxPoint x="950" y="1500" />
            </Array>
          </mxGeometry>
        </mxCell>
        <mxCell id="A322ff-ICec4E691yLk0-8" value="poe交换机（监控）" style="image;html=1;image=img/lib/clip_art/networking/Switch_128x128.png" parent="1" vertex="1">
          <mxGeometry x="480" y="1330" width="80" height="80" as="geometry" />
        </mxCell>
        <mxCell id="A322ff-ICec4E691yLk0-9" value="一楼电视" style="image;html=1;image=img/lib/clip_art/computers/Monitor_128x128.png" parent="1" vertex="1">
          <mxGeometry x="320" y="1330" width="80" height="80" as="geometry" />
        </mxCell>
        <mxCell id="A322ff-ICec4E691yLk0-13" value="手机1" style="image;html=1;image=img/lib/clip_art/telecommunication/iPhone_128x128.png" parent="1" vertex="1">
          <mxGeometry x="640" y="1330" width="80" height="80" as="geometry" />
        </mxCell>
        <mxCell id="A322ff-ICec4E691yLk0-14" value="手机2&lt;div&gt;&lt;br&gt;&lt;/div&gt;" style="image;html=1;image=img/lib/clip_art/telecommunication/iPhone_128x128.png" parent="1" vertex="1">
          <mxGeometry x="800" y="1330" width="80" height="80" as="geometry" />
        </mxCell>
        <mxCell id="A322ff-ICec4E691yLk0-15" value="" style="shape=waypoint;sketch=0;fillStyle=solid;size=6;pointerEvents=1;points=[];fillColor=none;resizable=0;rotatable=0;perimeter=centerPerimeter;snapToPoint=1;" parent="1" vertex="1">
          <mxGeometry x="920" y="1360" width="20" height="20" as="geometry" />
        </mxCell>
        <mxCell id="A322ff-ICec4E691yLk0-16" value="" style="shape=waypoint;sketch=0;fillStyle=solid;size=6;pointerEvents=1;points=[];fillColor=none;resizable=0;rotatable=0;perimeter=centerPerimeter;snapToPoint=1;" parent="1" vertex="1">
          <mxGeometry x="940" y="1360" width="20" height="20" as="geometry" />
        </mxCell>
        <mxCell id="A322ff-ICec4E691yLk0-17" value="" style="shape=waypoint;sketch=0;fillStyle=solid;size=6;pointerEvents=1;points=[];fillColor=none;resizable=0;rotatable=0;perimeter=centerPerimeter;snapToPoint=1;" parent="1" vertex="1">
          <mxGeometry x="900" y="1360" width="20" height="20" as="geometry" />
        </mxCell>
        <mxCell id="A322ff-ICec4E691yLk0-25" value="无线设备 n..." style="text;html=1;align=center;verticalAlign=middle;whiteSpace=wrap;rounded=0;" parent="1" vertex="1">
          <mxGeometry x="910" y="1410" width="60" height="30" as="geometry" />
        </mxCell>
        <mxCell id="A322ff-ICec4E691yLk0-28" style="edgeStyle=orthogonalEdgeStyle;rounded=0;orthogonalLoop=1;jettySize=auto;html=1;endArrow=none;endFill=0;" parent="1" source="A322ff-ICec4E691yLk0-26" target="A322ff-ICec4E691yLk0-7" edge="1">
          <mxGeometry relative="1" as="geometry" />
        </mxCell>
        <mxCell id="A322ff-ICec4E691yLk0-26" value="无线路由器&lt;div&gt;&lt;br&gt;&lt;/div&gt;" style="image;html=1;image=img/lib/clip_art/networking/Wireless_Router_128x128.png" parent="1" vertex="1">
          <mxGeometry x="160" y="1300" width="80" height="80" as="geometry" />
        </mxCell>
        <mxCell id="A322ff-ICec4E691yLk0-29" value="" style="html=1;outlineConnect=0;fillColor=#CCCCCC;strokeColor=#6881B3;gradientColor=none;gradientDirection=north;strokeWidth=2;shape=mxgraph.networks.comm_link_edge;html=1;rounded=0;exitX=0.625;exitY=-0.025;exitDx=0;exitDy=0;exitPerimeter=0;entryX=0;entryY=0;entryDx=0;entryDy=0;" parent="1" source="A322ff-ICec4E691yLk0-26" target="A322ff-ICec4E691yLk0-5" edge="1">
          <mxGeometry width="100" height="100" relative="1" as="geometry">
            <mxPoint x="470" y="1430" as="sourcePoint" />
            <mxPoint x="380" y="1200" as="targetPoint" />
            <Array as="points">
              <mxPoint x="350" y="1330" />
            </Array>
          </mxGeometry>
        </mxCell>
        <mxCell id="A322ff-ICec4E691yLk0-35" value="无线连接" style="edgeLabel;html=1;align=center;verticalAlign=middle;resizable=0;points=[];" parent="A322ff-ICec4E691yLk0-29" vertex="1" connectable="0">
          <mxGeometry x="0.3098" y="90" relative="1" as="geometry">
            <mxPoint as="offset" />
          </mxGeometry>
        </mxCell>
        <mxCell id="A322ff-ICec4E691yLk0-30" value="" style="html=1;outlineConnect=0;fillColor=#CCCCCC;strokeColor=#6881B3;gradientColor=none;gradientDirection=north;strokeWidth=2;shape=mxgraph.networks.comm_link_edge;html=1;rounded=0;exitX=0.5;exitY=0;exitDx=0;exitDy=0;entryX=0;entryY=0;entryDx=0;entryDy=0;" parent="1" source="A322ff-ICec4E691yLk0-9" edge="1">
          <mxGeometry width="100" height="100" relative="1" as="geometry">
            <mxPoint x="220" y="1308" as="sourcePoint" />
            <mxPoint x="490" y="1110" as="targetPoint" />
            <Array as="points">
              <mxPoint x="360" y="1340" />
            </Array>
          </mxGeometry>
        </mxCell>
        <mxCell id="A322ff-ICec4E691yLk0-31" value="" style="html=1;outlineConnect=0;fillColor=#CCCCCC;strokeColor=#6881B3;gradientColor=none;gradientDirection=north;strokeWidth=2;shape=mxgraph.networks.comm_link_edge;html=1;rounded=0;entryX=1;entryY=1;entryDx=0;entryDy=0;" parent="1" source="A322ff-ICec4E691yLk0-13" target="A322ff-ICec4E691yLk0-5" edge="1">
          <mxGeometry width="100" height="100" relative="1" as="geometry">
            <mxPoint x="470" y="1430" as="sourcePoint" />
            <mxPoint x="570" y="1330" as="targetPoint" />
          </mxGeometry>
        </mxCell>
        <mxCell id="A322ff-ICec4E691yLk0-33" value="" style="html=1;outlineConnect=0;fillColor=#CCCCCC;strokeColor=#6881B3;gradientColor=none;gradientDirection=north;strokeWidth=2;shape=mxgraph.networks.comm_link_edge;html=1;rounded=0;" parent="1" edge="1">
          <mxGeometry width="100" height="100" relative="1" as="geometry">
            <mxPoint x="850" y="1310" as="sourcePoint" />
            <mxPoint x="560" y="1160" as="targetPoint" />
            <Array as="points">
              <mxPoint x="650" y="1210" />
              <mxPoint x="600" y="1180" />
            </Array>
          </mxGeometry>
        </mxCell>
        <mxCell id="A322ff-ICec4E691yLk0-44" style="edgeStyle=orthogonalEdgeStyle;rounded=0;orthogonalLoop=1;jettySize=auto;html=1;entryX=0;entryY=0.5;entryDx=0;entryDy=0;endArrow=none;endFill=0;" parent="1" source="A322ff-ICec4E691yLk0-41" target="A322ff-ICec4E691yLk0-7" edge="1">
          <mxGeometry relative="1" as="geometry" />
        </mxCell>
        <mxCell id="A322ff-ICec4E691yLk0-45" value="&lt;font style=&quot;font-size: 12px;&quot;&gt;usb连接&lt;/font&gt;" style="edgeLabel;html=1;align=center;verticalAlign=middle;resizable=0;points=[];" parent="A322ff-ICec4E691yLk0-44" vertex="1" connectable="0">
          <mxGeometry x="-0.2286" y="1" relative="1" as="geometry">
            <mxPoint as="offset" />
          </mxGeometry>
        </mxCell>
        <mxCell id="A322ff-ICec4E691yLk0-41" value="" style="image;html=1;image=img/lib/clip_art/computers/Printer_128x128.png" parent="1" vertex="1">
          <mxGeometry x="-60" y="1520" width="80" height="80" as="geometry" />
        </mxCell>
        <mxCell id="A322ff-ICec4E691yLk0-42" value="一楼前门监控" style="fontColor=#0066CC;verticalAlign=top;verticalLabelPosition=bottom;labelPosition=center;align=center;html=1;outlineConnect=0;fillColor=#CCCCCC;strokeColor=#6881B3;gradientColor=none;gradientDirection=north;strokeWidth=2;shape=mxgraph.networks.security_camera;" parent="1" vertex="1">
          <mxGeometry x="340" y="1590" width="100" height="75" as="geometry" />
        </mxCell>
        <mxCell id="A322ff-ICec4E691yLk0-47" value="三楼大厅监控" style="fontColor=#0066CC;verticalAlign=top;verticalLabelPosition=bottom;labelPosition=center;align=center;html=1;outlineConnect=0;fillColor=#CCCCCC;strokeColor=#6881B3;gradientColor=none;gradientDirection=north;strokeWidth=2;shape=mxgraph.networks.security_camera;" parent="1" vertex="1">
          <mxGeometry x="900" y="1600" width="100" height="75" as="geometry" />
        </mxCell>
        <mxCell id="A322ff-ICec4E691yLk0-48" value="一楼后门监控" style="fontColor=#0066CC;verticalAlign=top;verticalLabelPosition=bottom;labelPosition=center;align=center;html=1;outlineConnect=0;fillColor=#CCCCCC;strokeColor=#6881B3;gradientColor=none;gradientDirection=north;strokeWidth=2;shape=mxgraph.networks.security_camera;" parent="1" vertex="1">
          <mxGeometry x="530" y="1590" width="100" height="75" as="geometry" />
        </mxCell>
        <mxCell id="A322ff-ICec4E691yLk0-49" value="二楼大厅监控" style="fontColor=#0066CC;verticalAlign=top;verticalLabelPosition=bottom;labelPosition=center;align=center;html=1;outlineConnect=0;fillColor=#CCCCCC;strokeColor=#6881B3;gradientColor=none;gradientDirection=north;strokeWidth=2;shape=mxgraph.networks.security_camera;" parent="1" vertex="1">
          <mxGeometry x="710" y="1590" width="100" height="75" as="geometry" />
        </mxCell>
      </root>
    </mxGraphModel>
  </diagram>
</mxfile>
